<svg xmlns="http://www.w3.org/2000/svg" xmlns:xlink="http://www.w3.org/1999/xlink" width="2000" zoomAndPan="magnify" viewBox="0 0 1500 1499.999933" height="2000" preserveAspectRatio="xMidYMid meet" version="1.0"><defs><clipPath id="b11ece275b"><path d="M 125 352.804688 L 1375 352.804688 L 1375 1147.054688 L 125 1147.054688 Z M 125 352.804688 " clip-rule="nonzero"/></clipPath></defs><g clip-path="url(#b11ece275b)"><path fill="#fff5e0" d="M 125.640625 1141.75 C 125.640625 1141.382812 125.679688 1141.023438 125.75 1140.664062 C 125.820312 1140.304688 125.925781 1139.953125 126.066406 1139.617188 C 126.207031 1139.277344 126.378906 1138.957031 126.582031 1138.652344 C 126.785156 1138.347656 127.015625 1138.066406 127.273438 1137.808594 C 127.535156 1137.550781 127.816406 1137.320312 128.121094 1137.113281 C 128.425781 1136.910156 128.746094 1136.738281 129.082031 1136.601562 C 129.421875 1136.460938 129.769531 1136.355469 130.128906 1136.28125 C 130.488281 1136.210938 130.851562 1136.175781 131.21875 1136.175781 L 977.078125 1136.175781 C 1190 1136.175781 1363.199219 962.972656 1363.199219 750.078125 C 1363.199219 537.1875 1190 363.957031 977.078125 363.957031 L 131.21875 363.957031 C 130.851562 363.957031 130.488281 363.921875 130.128906 363.847656 C 129.769531 363.777344 129.421875 363.671875 129.082031 363.53125 C 128.746094 363.390625 128.425781 363.21875 128.121094 363.015625 C 127.816406 362.8125 127.535156 362.582031 127.273438 362.324219 C 127.015625 362.0625 126.785156 361.78125 126.582031 361.476562 C 126.378906 361.175781 126.207031 360.851562 126.066406 360.515625 C 125.925781 360.175781 125.820312 359.828125 125.75 359.46875 C 125.679688 359.109375 125.640625 358.746094 125.640625 358.382812 C 125.640625 358.015625 125.679688 357.652344 125.75 357.292969 C 125.820312 356.933594 125.925781 356.585938 126.066406 356.246094 C 126.207031 355.910156 126.378906 355.589844 126.582031 355.285156 C 126.785156 354.980469 127.015625 354.699219 127.273438 354.4375 C 127.535156 354.179688 127.816406 353.949219 128.121094 353.746094 C 128.425781 353.542969 128.746094 353.371094 129.082031 353.230469 C 129.421875 353.089844 129.769531 352.984375 130.128906 352.914062 C 130.488281 352.84375 130.851562 352.804688 131.21875 352.804688 L 977.078125 352.804688 C 1196.128906 352.804688 1374.351562 531.027344 1374.351562 750.078125 C 1374.351562 969.132812 1196.128906 1147.324219 977.078125 1147.324219 L 131.21875 1147.324219 C 130.851562 1147.324219 130.488281 1147.289062 130.128906 1147.21875 C 129.769531 1147.144531 129.421875 1147.039062 129.082031 1146.902344 C 128.746094 1146.761719 128.425781 1146.589844 128.121094 1146.386719 C 127.816406 1146.183594 127.535156 1145.949219 127.273438 1145.691406 C 127.015625 1145.433594 126.785156 1145.152344 126.582031 1144.847656 C 126.378906 1144.542969 126.207031 1144.222656 126.066406 1143.882812 C 125.925781 1143.546875 125.820312 1143.195312 125.75 1142.835938 C 125.679688 1142.480469 125.640625 1142.117188 125.640625 1141.75 Z M 131.382812 1087.285156 L 975.933594 1087.285156 C 981.453125 1087.285156 986.964844 1087.144531 992.476562 1086.871094 C 997.988281 1086.597656 1003.488281 1086.191406 1008.980469 1085.648438 C 1014.472656 1085.105469 1019.945312 1084.425781 1025.402344 1083.613281 C 1030.863281 1082.800781 1036.296875 1081.855469 1041.707031 1080.777344 C 1047.117188 1079.699219 1052.5 1078.488281 1057.851562 1077.144531 C 1063.203125 1075.800781 1068.519531 1074.328125 1073.800781 1072.726562 C 1079.078125 1071.121094 1084.316406 1069.390625 1089.511719 1067.527344 C 1094.707031 1065.667969 1099.851562 1063.679688 1104.949219 1061.566406 C 1110.046875 1059.453125 1115.085938 1057.214844 1120.074219 1054.855469 C 1125.0625 1052.492188 1129.988281 1050.011719 1134.855469 1047.410156 C 1139.71875 1044.808594 1144.519531 1042.085938 1149.25 1039.246094 C 1153.980469 1036.410156 1158.640625 1033.457031 1163.226562 1030.390625 C 1167.816406 1027.324219 1172.324219 1024.144531 1176.753906 1020.855469 C 1181.1875 1017.570312 1185.535156 1014.175781 1189.796875 1010.671875 C 1194.0625 1007.171875 1198.238281 1003.566406 1202.324219 999.859375 C 1206.414062 996.152344 1210.40625 992.347656 1214.308594 988.445312 C 1218.210938 984.542969 1222.011719 980.546875 1225.714844 976.457031 C 1229.421875 972.367188 1233.023438 968.191406 1236.523438 963.925781 C 1240.023438 959.660156 1243.414062 955.308594 1246.703125 950.878906 C 1249.988281 946.445312 1253.164062 941.933594 1256.226562 937.34375 C 1259.292969 932.757812 1262.242188 928.097656 1265.078125 923.363281 C 1267.914062 918.628906 1270.632812 913.828125 1273.234375 908.964844 C 1275.832031 904.097656 1278.3125 899.167969 1280.671875 894.179688 C 1283.03125 889.191406 1285.265625 884.148438 1287.375 879.050781 C 1289.484375 873.953125 1291.472656 868.804688 1293.328125 863.609375 C 1295.1875 858.414062 1296.917969 853.175781 1298.519531 847.894531 C 1300.121094 842.617188 1301.589844 837.300781 1302.929688 831.945312 C 1304.269531 826.59375 1305.480469 821.210938 1306.554688 815.800781 C 1307.632812 810.386719 1308.574219 804.953125 1309.382812 799.496094 C 1310.195312 794.035156 1310.867188 788.5625 1311.410156 783.070312 C 1311.949219 777.578125 1312.355469 772.078125 1312.625 766.566406 C 1312.898438 761.054688 1313.03125 755.542969 1313.03125 750.023438 C 1313.03125 744.507812 1312.898438 738.992188 1312.625 733.480469 C 1312.355469 727.96875 1311.949219 722.46875 1311.410156 716.976562 C 1310.867188 711.484375 1310.195312 706.011719 1309.382812 700.550781 C 1308.574219 695.09375 1307.632812 689.660156 1306.554688 684.246094 C 1305.480469 678.835938 1304.269531 673.453125 1302.929688 668.101562 C 1301.589844 662.75 1300.121094 657.429688 1298.519531 652.152344 C 1296.917969 646.871094 1295.1875 641.632812 1293.328125 636.4375 C 1291.472656 631.242188 1289.484375 626.09375 1287.375 620.996094 C 1285.265625 615.898438 1283.03125 610.855469 1280.671875 605.867188 C 1278.3125 600.878906 1275.832031 595.953125 1273.234375 591.085938 C 1270.632812 586.21875 1267.914062 581.417969 1265.078125 576.683594 C 1262.242188 571.953125 1259.292969 567.289062 1256.226562 562.703125 C 1253.164062 558.113281 1249.988281 553.601562 1246.703125 549.171875 C 1243.414062 544.738281 1240.023438 540.386719 1236.523438 536.121094 C 1233.023438 531.855469 1229.421875 527.679688 1225.714844 523.589844 C 1222.011719 519.5 1218.210938 515.503906 1214.308594 511.601562 C 1210.40625 507.699219 1206.414062 503.894531 1202.324219 500.1875 C 1198.238281 496.480469 1194.0625 492.875 1189.796875 489.375 C 1185.535156 485.875 1181.1875 482.476562 1176.753906 479.191406 C 1172.324219 475.902344 1167.816406 472.722656 1163.226562 469.65625 C 1158.640625 466.589844 1153.980469 463.636719 1149.25 460.800781 C 1144.519531 457.960938 1139.71875 455.242188 1134.855469 452.636719 C 1129.988281 450.035156 1125.0625 447.554688 1120.074219 445.191406 C 1115.085938 442.832031 1110.046875 440.59375 1104.949219 438.480469 C 1099.851562 436.367188 1094.707031 434.378906 1089.511719 432.519531 C 1084.316406 430.660156 1079.078125 428.925781 1073.800781 427.324219 C 1068.519531 425.71875 1063.203125 424.246094 1057.851562 422.902344 C 1052.5 421.558594 1047.117188 420.347656 1041.707031 419.269531 C 1036.296875 418.191406 1030.863281 417.246094 1025.402344 416.433594 C 1019.945312 415.621094 1014.472656 414.945312 1008.980469 414.402344 C 1003.488281 413.855469 997.988281 413.449219 992.476562 413.175781 C 986.964844 412.902344 981.453125 412.765625 975.933594 412.761719 L 131.382812 412.761719 C 131.019531 412.761719 130.65625 412.796875 130.296875 412.867188 C 129.9375 412.941406 129.589844 413.046875 129.25 413.1875 C 128.914062 413.324219 128.589844 413.496094 128.289062 413.699219 C 127.984375 413.902344 127.703125 414.136719 127.441406 414.394531 C 127.183594 414.652344 126.953125 414.933594 126.75 415.238281 C 126.546875 415.542969 126.375 415.863281 126.234375 416.203125 C 126.09375 416.539062 125.988281 416.890625 125.917969 417.25 C 125.84375 417.605469 125.808594 417.96875 125.808594 418.335938 C 125.808594 418.703125 125.84375 419.0625 125.917969 419.421875 C 125.988281 419.78125 126.09375 420.132812 126.234375 420.46875 C 126.375 420.808594 126.546875 421.128906 126.75 421.433594 C 126.953125 421.738281 127.183594 422.019531 127.441406 422.277344 C 127.703125 422.535156 127.984375 422.769531 128.289062 422.972656 C 128.589844 423.175781 128.914062 423.347656 129.25 423.484375 C 129.589844 423.625 129.9375 423.730469 130.296875 423.804688 C 130.65625 423.875 131.019531 423.910156 131.382812 423.910156 L 975.933594 423.910156 C 981.269531 423.910156 986.605469 424.042969 991.9375 424.304688 C 997.265625 424.566406 1002.585938 424.957031 1007.898438 425.480469 C 1013.210938 426.003906 1018.503906 426.65625 1023.785156 427.441406 C 1029.0625 428.222656 1034.320312 429.136719 1039.554688 430.175781 C 1044.789062 431.21875 1049.996094 432.386719 1055.171875 433.683594 C 1060.351562 434.980469 1065.492188 436.402344 1070.601562 437.953125 C 1075.707031 439.503906 1080.773438 441.175781 1085.796875 442.972656 C 1090.824219 444.773438 1095.800781 446.691406 1100.734375 448.734375 C 1105.664062 450.777344 1110.542969 452.9375 1115.367188 455.222656 C 1120.191406 457.503906 1124.957031 459.902344 1129.664062 462.417969 C 1134.371094 464.933594 1139.011719 467.5625 1143.589844 470.308594 C 1148.167969 473.050781 1152.675781 475.90625 1157.113281 478.871094 C 1161.550781 481.835938 1165.914062 484.90625 1170.199219 488.085938 C 1174.488281 491.265625 1178.691406 494.550781 1182.820312 497.933594 C 1186.945312 501.320312 1190.984375 504.804688 1194.9375 508.390625 C 1198.894531 511.972656 1202.757812 515.652344 1206.53125 519.425781 C 1210.304688 523.199219 1213.984375 527.066406 1217.566406 531.019531 C 1221.152344 534.972656 1224.636719 539.015625 1228.023438 543.140625 C 1231.410156 547.265625 1234.691406 551.472656 1237.871094 555.757812 C 1241.050781 560.046875 1244.121094 564.40625 1247.085938 568.84375 C 1250.054688 573.28125 1252.90625 577.789062 1255.652344 582.367188 C 1258.394531 586.945312 1261.023438 591.589844 1263.539062 596.296875 C 1266.054688 601 1268.457031 605.769531 1270.738281 610.59375 C 1273.019531 615.417969 1275.179688 620.292969 1277.222656 625.226562 C 1279.265625 630.15625 1281.1875 635.132812 1282.984375 640.160156 C 1284.78125 645.183594 1286.457031 650.25 1288.003906 655.359375 C 1289.554688 660.464844 1290.976562 665.609375 1292.273438 670.785156 C 1293.570312 675.960938 1294.742188 681.167969 1295.78125 686.402344 C 1296.824219 691.636719 1297.734375 696.894531 1298.519531 702.171875 C 1299.300781 707.453125 1299.953125 712.746094 1300.476562 718.058594 C 1301 723.371094 1301.394531 728.691406 1301.65625 734.023438 C 1301.917969 739.351562 1302.046875 744.6875 1302.046875 750.023438 C 1302.046875 755.359375 1301.917969 760.695312 1301.65625 766.027344 C 1301.394531 771.355469 1301 776.675781 1300.476562 781.988281 C 1299.953125 787.300781 1299.300781 792.59375 1298.519531 797.875 C 1297.734375 803.152344 1296.824219 808.410156 1295.78125 813.644531 C 1294.742188 818.878906 1293.570312 824.085938 1292.273438 829.261719 C 1290.976562 834.441406 1289.554688 839.582031 1288.003906 844.691406 C 1286.457031 849.796875 1284.78125 854.863281 1282.984375 859.886719 C 1281.1875 864.914062 1279.265625 869.890625 1277.222656 874.820312 C 1275.179688 879.753906 1273.019531 884.628906 1270.738281 889.457031 C 1268.457031 894.28125 1266.054688 899.046875 1263.539062 903.753906 C 1261.023438 908.460938 1258.394531 913.101562 1255.652344 917.679688 C 1252.90625 922.257812 1250.054688 926.765625 1247.085938 931.203125 C 1244.121094 935.640625 1241.050781 940.003906 1237.871094 944.289062 C 1234.691406 948.574219 1231.410156 952.78125 1228.023438 956.90625 C 1224.636719 961.035156 1221.152344 965.074219 1217.566406 969.027344 C 1213.984375 972.984375 1210.304688 976.847656 1206.53125 980.621094 C 1202.757812 984.394531 1198.894531 988.074219 1194.9375 991.65625 C 1190.984375 995.242188 1186.945312 998.726562 1182.820312 1002.113281 C 1178.691406 1005.5 1174.488281 1008.78125 1170.199219 1011.960938 C 1165.914062 1015.140625 1161.550781 1018.210938 1157.113281 1021.175781 C 1152.675781 1024.140625 1148.167969 1026.996094 1143.589844 1029.742188 C 1139.011719 1032.484375 1134.371094 1035.113281 1129.664062 1037.628906 C 1124.957031 1040.144531 1120.191406 1042.542969 1115.367188 1044.828125 C 1110.542969 1047.109375 1105.664062 1049.269531 1100.734375 1051.3125 C 1095.800781 1053.355469 1090.824219 1055.277344 1085.796875 1057.074219 C 1080.773438 1058.871094 1075.707031 1060.546875 1070.601562 1062.09375 C 1065.492188 1063.644531 1060.351562 1065.066406 1055.171875 1066.363281 C 1049.996094 1067.660156 1044.789062 1068.828125 1039.554688 1069.871094 C 1034.320312 1070.914062 1029.0625 1071.824219 1023.785156 1072.609375 C 1018.503906 1073.390625 1013.210938 1074.042969 1007.898438 1074.566406 C 1002.585938 1075.089844 997.265625 1075.484375 991.9375 1075.746094 C 986.605469 1076.007812 981.269531 1076.136719 975.933594 1076.136719 L 131.382812 1076.136719 C 131.019531 1076.136719 130.65625 1076.171875 130.296875 1076.246094 C 129.9375 1076.316406 129.589844 1076.421875 129.25 1076.5625 C 128.914062 1076.703125 128.589844 1076.875 128.289062 1077.078125 C 127.984375 1077.28125 127.703125 1077.511719 127.441406 1077.769531 C 127.183594 1078.027344 126.953125 1078.308594 126.75 1078.613281 C 126.546875 1078.917969 126.375 1079.242188 126.234375 1079.578125 C 126.09375 1079.917969 125.988281 1080.265625 125.917969 1080.625 C 125.84375 1080.984375 125.808594 1081.347656 125.808594 1081.710938 C 125.808594 1082.078125 125.84375 1082.441406 125.917969 1082.800781 C 125.988281 1083.160156 126.09375 1083.507812 126.234375 1083.84375 C 126.375 1084.183594 126.546875 1084.503906 126.75 1084.808594 C 126.953125 1085.113281 127.183594 1085.394531 127.441406 1085.652344 C 127.703125 1085.914062 127.984375 1086.144531 128.289062 1086.347656 C 128.589844 1086.550781 128.914062 1086.722656 129.25 1086.863281 C 129.589844 1087.003906 129.9375 1087.109375 130.296875 1087.179688 C 130.65625 1087.25 131.019531 1087.285156 131.382812 1087.285156 Z M 131.578125 1027.332031 L 974.902344 1027.332031 C 979.4375 1027.332031 983.972656 1027.21875 988.503906 1026.996094 C 993.035156 1026.773438 997.554688 1026.441406 1002.070312 1025.996094 C 1006.585938 1025.550781 1011.085938 1024.996094 1015.570312 1024.332031 C 1020.058594 1023.667969 1024.527344 1022.890625 1028.976562 1022.007812 C 1033.425781 1021.121094 1037.847656 1020.128906 1042.25 1019.027344 C 1046.648438 1017.921875 1051.019531 1016.714844 1055.359375 1015.398438 C 1059.703125 1014.082031 1064.007812 1012.65625 1068.277344 1011.128906 C 1072.550781 1009.601562 1076.78125 1007.96875 1080.972656 1006.234375 C 1085.160156 1004.496094 1089.308594 1002.660156 1093.40625 1000.71875 C 1097.507812 998.78125 1101.558594 996.742188 1105.558594 994.605469 C 1109.558594 992.464844 1113.503906 990.230469 1117.394531 987.898438 C 1121.285156 985.566406 1125.117188 983.140625 1128.890625 980.621094 C 1132.660156 978.101562 1136.367188 975.488281 1140.011719 972.785156 C 1143.65625 970.085938 1147.230469 967.296875 1150.738281 964.417969 C 1154.242188 961.539062 1157.675781 958.578125 1161.039062 955.53125 C 1164.398438 952.484375 1167.683594 949.359375 1170.890625 946.152344 C 1174.097656 942.945312 1177.226562 939.660156 1180.269531 936.296875 C 1183.316406 932.9375 1186.28125 929.503906 1189.15625 925.996094 C 1192.035156 922.492188 1194.824219 918.914062 1197.527344 915.273438 C 1200.230469 911.628906 1202.839844 907.921875 1205.359375 904.148438 C 1207.878906 900.378906 1210.304688 896.546875 1212.636719 892.65625 C 1214.96875 888.765625 1217.207031 884.820312 1219.34375 880.820312 C 1221.480469 876.820312 1223.519531 872.769531 1225.460938 868.667969 C 1227.398438 864.566406 1229.238281 860.421875 1230.972656 856.230469 C 1232.710938 852.039062 1234.339844 847.808594 1235.871094 843.539062 C 1237.398438 839.265625 1238.820312 834.960938 1240.136719 830.621094 C 1241.453125 826.28125 1242.664062 821.910156 1243.765625 817.507812 C 1244.867188 813.109375 1245.859375 808.683594 1246.746094 804.234375 C 1247.628906 799.789062 1248.40625 795.320312 1249.070312 790.832031 C 1249.738281 786.34375 1250.292969 781.84375 1250.738281 777.332031 C 1251.179688 772.816406 1251.515625 768.292969 1251.738281 763.761719 C 1251.960938 759.234375 1252.070312 754.699219 1252.070312 750.164062 C 1252.070312 745.628906 1251.960938 741.09375 1251.738281 736.5625 C 1251.515625 732.03125 1251.179688 727.511719 1250.738281 722.996094 C 1250.292969 718.480469 1249.738281 713.980469 1249.070312 709.496094 C 1248.40625 705.007812 1247.628906 700.539062 1246.746094 696.089844 C 1245.859375 691.640625 1244.867188 687.21875 1243.765625 682.816406 C 1242.664062 678.417969 1241.453125 674.046875 1240.136719 669.707031 C 1238.820312 665.363281 1237.398438 661.058594 1235.871094 656.789062 C 1234.339844 652.515625 1232.710938 648.285156 1230.972656 644.09375 C 1229.238281 639.90625 1227.398438 635.757812 1225.460938 631.660156 C 1223.519531 627.558594 1221.480469 623.507812 1219.34375 619.507812 C 1217.207031 615.507812 1214.96875 611.5625 1212.636719 607.671875 C 1210.304688 603.78125 1207.878906 599.949219 1205.359375 596.175781 C 1202.839844 592.40625 1200.230469 588.699219 1197.527344 585.054688 C 1194.824219 581.410156 1192.035156 577.835938 1189.15625 574.328125 C 1186.28125 570.824219 1183.316406 567.390625 1180.269531 564.027344 C 1177.226562 560.667969 1174.097656 557.382812 1170.890625 554.175781 C 1167.683594 550.96875 1164.398438 547.839844 1161.039062 544.796875 C 1157.675781 541.75 1154.242188 538.785156 1150.738281 535.910156 C 1147.230469 533.03125 1143.65625 530.242188 1140.011719 527.539062 C 1136.367188 524.835938 1132.660156 522.226562 1128.890625 519.707031 C 1125.117188 517.1875 1121.285156 514.761719 1117.394531 512.429688 C 1113.503906 510.097656 1109.558594 507.859375 1105.558594 505.722656 C 1101.558594 503.585938 1097.507812 501.546875 1093.40625 499.605469 C 1089.308594 497.667969 1085.160156 495.828125 1080.972656 494.09375 C 1076.78125 492.355469 1072.550781 490.726562 1068.277344 489.195312 C 1064.007812 487.667969 1059.703125 486.246094 1055.359375 484.929688 C 1051.019531 483.613281 1046.648438 482.402344 1042.25 481.300781 C 1037.847656 480.199219 1033.425781 479.207031 1028.976562 478.320312 C 1024.527344 477.433594 1020.058594 476.660156 1015.570312 475.996094 C 1011.085938 475.328125 1006.585938 474.773438 1002.070312 474.328125 C 997.554688 473.882812 993.035156 473.550781 988.503906 473.328125 C 983.972656 473.105469 979.4375 472.996094 974.902344 472.996094 L 131.578125 472.996094 C 131.214844 472.996094 130.851562 473.03125 130.492188 473.101562 C 130.132812 473.171875 129.785156 473.277344 129.445312 473.417969 C 129.109375 473.558594 128.785156 473.730469 128.480469 473.933594 C 128.179688 474.136719 127.894531 474.367188 127.636719 474.628906 C 127.378906 474.886719 127.148438 475.167969 126.945312 475.472656 C 126.742188 475.777344 126.570312 476.097656 126.429688 476.4375 C 126.289062 476.773438 126.183594 477.121094 126.113281 477.480469 C 126.039062 477.839844 126.003906 478.203125 126.003906 478.570312 C 126.003906 478.933594 126.039062 479.296875 126.113281 479.65625 C 126.183594 480.015625 126.289062 480.363281 126.429688 480.703125 C 126.570312 481.039062 126.742188 481.363281 126.945312 481.667969 C 127.148438 481.972656 127.378906 482.253906 127.636719 482.511719 C 127.894531 482.769531 128.179688 483 128.480469 483.203125 C 128.785156 483.40625 129.109375 483.578125 129.445312 483.71875 C 129.785156 483.859375 130.132812 483.964844 130.492188 484.035156 C 130.851562 484.109375 131.214844 484.144531 131.578125 484.144531 L 974.902344 484.144531 C 979.257812 484.144531 983.609375 484.25 987.957031 484.464844 C 992.304688 484.679688 996.644531 485 1000.976562 485.425781 C 1005.308594 485.851562 1009.628906 486.382812 1013.9375 487.023438 C 1018.242188 487.660156 1022.53125 488.40625 1026.800781 489.253906 C 1031.070312 490.105469 1035.316406 491.058594 1039.539062 492.117188 C 1043.761719 493.175781 1047.957031 494.335938 1052.125 495.597656 C 1056.289062 496.863281 1060.421875 498.226562 1064.523438 499.695312 C 1068.621094 501.160156 1072.683594 502.726562 1076.703125 504.394531 C 1080.726562 506.058594 1084.707031 507.824219 1088.640625 509.683594 C 1092.578125 511.546875 1096.464844 513.503906 1100.304688 515.554688 C 1104.144531 517.609375 1107.929688 519.753906 1111.664062 521.992188 C 1115.398438 524.230469 1119.074219 526.558594 1122.695312 528.976562 C 1126.316406 531.394531 1129.875 533.902344 1133.371094 536.496094 C 1136.867188 539.089844 1140.296875 541.765625 1143.664062 544.527344 C 1147.027344 547.289062 1150.324219 550.132812 1153.550781 553.054688 C 1156.777344 555.980469 1159.929688 558.980469 1163.007812 562.058594 C 1166.085938 565.136719 1169.085938 568.289062 1172.011719 571.515625 C 1174.933594 574.742188 1177.777344 578.035156 1180.539062 581.402344 C 1183.300781 584.769531 1185.976562 588.199219 1188.570312 591.695312 C 1191.164062 595.191406 1193.671875 598.75 1196.089844 602.371094 C 1198.507812 605.992188 1200.835938 609.667969 1203.074219 613.402344 C 1205.3125 617.136719 1207.457031 620.921875 1209.511719 624.761719 C 1211.5625 628.601562 1213.519531 632.488281 1215.382812 636.425781 C 1217.242188 640.359375 1219.007812 644.339844 1220.671875 648.363281 C 1222.339844 652.382812 1223.90625 656.445312 1225.371094 660.542969 C 1226.839844 664.644531 1228.203125 668.777344 1229.46875 672.941406 C 1230.730469 677.109375 1231.890625 681.300781 1232.949219 685.527344 C 1234.007812 689.75 1234.960938 693.996094 1235.8125 698.265625 C 1236.660156 702.535156 1237.402344 706.824219 1238.042969 711.128906 C 1238.683594 715.4375 1239.214844 719.757812 1239.640625 724.089844 C 1240.066406 728.421875 1240.386719 732.761719 1240.601562 737.109375 C 1240.816406 741.457031 1240.921875 745.808594 1240.921875 750.164062 C 1240.921875 754.515625 1240.816406 758.867188 1240.601562 763.214844 C 1240.386719 767.566406 1240.066406 771.90625 1239.640625 776.238281 C 1239.214844 780.570312 1238.683594 784.890625 1238.042969 789.195312 C 1237.402344 793.503906 1236.660156 797.792969 1235.8125 802.0625 C 1234.960938 806.332031 1234.007812 810.578125 1232.949219 814.800781 C 1231.890625 819.023438 1230.730469 823.21875 1229.46875 827.382812 C 1228.203125 831.550781 1226.839844 835.683594 1225.371094 839.78125 C 1223.90625 843.882812 1222.339844 847.941406 1220.671875 851.964844 C 1219.007812 855.988281 1217.242188 859.964844 1215.382812 863.902344 C 1213.519531 867.835938 1211.5625 871.722656 1209.511719 875.5625 C 1207.457031 879.402344 1205.3125 883.191406 1203.074219 886.925781 C 1200.835938 890.660156 1198.507812 894.335938 1196.089844 897.957031 C 1193.671875 901.574219 1191.164062 905.132812 1188.570312 908.628906 C 1185.976562 912.128906 1183.300781 915.558594 1180.539062 918.925781 C 1177.777344 922.289062 1174.933594 925.585938 1172.011719 928.8125 C 1169.085938 932.035156 1166.085938 935.1875 1163.007812 938.265625 C 1159.929688 941.347656 1156.777344 944.347656 1153.550781 947.269531 C 1150.324219 950.195312 1147.027344 953.039062 1143.664062 955.800781 C 1140.296875 958.5625 1136.867188 961.238281 1133.371094 963.832031 C 1129.875 966.425781 1126.316406 968.929688 1122.695312 971.351562 C 1119.074219 973.769531 1115.398438 976.097656 1111.664062 978.335938 C 1107.929688 980.574219 1104.144531 982.71875 1100.304688 984.769531 C 1096.464844 986.824219 1092.578125 988.78125 1088.640625 990.640625 C 1084.707031 992.503906 1080.726562 994.265625 1076.703125 995.933594 C 1072.683594 997.597656 1068.621094 999.164062 1064.523438 1000.632812 C 1060.421875 1002.097656 1056.289062 1003.464844 1052.125 1004.726562 C 1047.957031 1005.992188 1043.761719 1007.152344 1039.539062 1008.210938 C 1035.316406 1009.269531 1031.070312 1010.222656 1026.800781 1011.070312 C 1022.53125 1011.921875 1018.242188 1012.664062 1013.9375 1013.304688 C 1009.628906 1013.941406 1005.308594 1014.476562 1000.976562 1014.902344 C 996.644531 1015.328125 992.304688 1015.648438 987.957031 1015.863281 C 983.609375 1016.074219 979.257812 1016.183594 974.902344 1016.183594 L 131.578125 1016.183594 C 131.214844 1016.183594 130.851562 1016.21875 130.492188 1016.289062 C 130.132812 1016.359375 129.785156 1016.464844 129.445312 1016.605469 C 129.109375 1016.746094 128.785156 1016.917969 128.480469 1017.121094 C 128.179688 1017.324219 127.894531 1017.554688 127.636719 1017.816406 C 127.378906 1018.074219 127.148438 1018.355469 126.945312 1018.660156 C 126.742188 1018.964844 126.570312 1019.285156 126.429688 1019.625 C 126.289062 1019.960938 126.183594 1020.3125 126.113281 1020.667969 C 126.039062 1021.027344 126.003906 1021.390625 126.003906 1021.757812 C 126.003906 1022.125 126.039062 1022.484375 126.113281 1022.84375 C 126.183594 1023.203125 126.289062 1023.550781 126.429688 1023.890625 C 126.570312 1024.230469 126.742188 1024.550781 126.945312 1024.855469 C 127.148438 1025.160156 127.378906 1025.441406 127.636719 1025.699219 C 127.894531 1025.957031 128.179688 1026.1875 128.480469 1026.390625 C 128.785156 1026.59375 129.109375 1026.765625 129.445312 1026.90625 C 129.785156 1027.046875 130.132812 1027.152344 130.492188 1027.226562 C 130.851562 1027.296875 131.214844 1027.332031 131.578125 1027.332031 Z M 131.746094 967.265625 L 973.789062 967.265625 C 977.367188 967.304688 980.945312 967.257812 984.519531 967.121094 C 988.097656 966.984375 991.667969 966.761719 995.234375 966.449219 C 998.800781 966.136719 1002.355469 965.734375 1005.902344 965.246094 C 1009.445312 964.757812 1012.976562 964.179688 1016.496094 963.515625 C 1020.011719 962.855469 1023.511719 962.105469 1026.992188 961.265625 C 1030.472656 960.429688 1033.929688 959.507812 1037.363281 958.5 C 1040.796875 957.496094 1044.203125 956.402344 1047.585938 955.226562 C 1050.964844 954.050781 1054.316406 952.792969 1057.632812 951.449219 C 1060.949219 950.109375 1064.234375 948.6875 1067.480469 947.183594 C 1070.730469 945.679688 1073.9375 944.09375 1077.109375 942.433594 C 1080.277344 940.769531 1083.40625 939.03125 1086.488281 937.214844 C 1089.570312 935.394531 1092.609375 933.503906 1095.597656 931.535156 C 1098.589844 929.570312 1101.527344 927.53125 1104.417969 925.417969 C 1107.304688 923.304688 1110.140625 921.121094 1112.921875 918.867188 C 1115.703125 916.617188 1118.425781 914.296875 1121.09375 911.90625 C 1123.761719 909.519531 1126.367188 907.066406 1128.910156 904.550781 C 1131.457031 902.035156 1133.9375 899.457031 1136.355469 896.816406 C 1138.773438 894.179688 1141.125 891.480469 1143.40625 888.726562 C 1145.691406 885.96875 1147.90625 883.160156 1150.050781 880.296875 C 1152.199219 877.429688 1154.269531 874.515625 1156.273438 871.546875 C 1158.273438 868.578125 1160.199219 865.5625 1162.050781 862.5 C 1163.902344 859.4375 1165.679688 856.332031 1167.378906 853.179688 C 1169.074219 850.03125 1170.695312 846.839844 1172.234375 843.609375 C 1173.777344 840.378906 1175.234375 837.113281 1176.613281 833.808594 C 1177.996094 830.507812 1179.289062 827.171875 1180.503906 823.804688 C 1181.71875 820.4375 1182.847656 817.042969 1183.894531 813.621094 C 1184.941406 810.199219 1185.902344 806.75 1186.777344 803.28125 C 1187.65625 799.808594 1188.445312 796.320312 1189.148438 792.8125 C 1189.851562 789.300781 1190.464844 785.777344 1190.996094 782.238281 C 1191.523438 778.699219 1191.964844 775.148438 1192.320312 771.585938 C 1192.671875 768.023438 1192.9375 764.453125 1193.113281 760.878906 C 1193.292969 757.304688 1193.378906 753.726562 1193.378906 750.148438 C 1193.378906 746.570312 1193.292969 742.992188 1193.113281 739.417969 C 1192.9375 735.84375 1192.671875 732.277344 1192.320312 728.714844 C 1191.964844 725.152344 1191.523438 721.601562 1190.996094 718.0625 C 1190.464844 714.523438 1189.851562 710.996094 1189.148438 707.488281 C 1188.445312 703.976562 1187.65625 700.488281 1186.777344 697.019531 C 1185.902344 693.546875 1184.941406 690.101562 1183.894531 686.679688 C 1182.847656 683.253906 1181.71875 679.859375 1180.503906 676.492188 C 1179.289062 673.125 1177.996094 669.792969 1176.613281 666.488281 C 1175.234375 663.1875 1173.777344 659.917969 1172.234375 656.6875 C 1170.695312 653.457031 1169.074219 650.269531 1167.378906 647.117188 C 1165.679688 643.964844 1163.902344 640.859375 1162.050781 637.796875 C 1160.199219 634.734375 1158.273438 631.71875 1156.273438 628.75 C 1154.269531 625.785156 1152.199219 622.867188 1150.050781 620.003906 C 1147.90625 617.136719 1145.691406 614.328125 1143.40625 611.574219 C 1141.125 608.816406 1138.773438 606.121094 1136.355469 603.480469 C 1133.9375 600.839844 1131.457031 598.265625 1128.910156 595.746094 C 1126.367188 593.230469 1123.761719 590.777344 1121.09375 588.390625 C 1118.425781 586.003906 1115.703125 583.683594 1112.921875 581.429688 C 1110.140625 579.175781 1107.304688 576.996094 1104.417969 574.882812 C 1101.527344 572.769531 1098.589844 570.730469 1095.597656 568.761719 C 1092.609375 566.792969 1089.570312 564.902344 1086.488281 563.085938 C 1083.40625 561.269531 1080.277344 559.527344 1077.109375 557.867188 C 1073.9375 556.203125 1070.730469 554.621094 1067.480469 553.117188 C 1064.234375 551.613281 1060.949219 550.191406 1057.632812 548.847656 C 1054.316406 547.507812 1050.964844 546.246094 1047.585938 545.070312 C 1044.203125 543.894531 1040.796875 542.804688 1037.363281 541.796875 C 1033.929688 540.789062 1030.472656 539.867188 1026.992188 539.03125 C 1023.511719 538.195312 1020.011719 537.445312 1016.496094 536.78125 C 1012.976562 536.117188 1009.445312 535.542969 1005.902344 535.054688 C 1002.355469 534.566406 998.800781 534.164062 995.234375 533.851562 C 991.667969 533.539062 988.097656 533.3125 984.519531 533.175781 C 980.945312 533.039062 977.367188 532.992188 973.789062 533.03125 L 131.746094 533.03125 C 131.378906 533.03125 131.019531 533.070312 130.660156 533.140625 C 130.300781 533.210938 129.953125 533.316406 129.613281 533.457031 C 129.273438 533.597656 128.953125 533.769531 128.648438 533.972656 C 128.34375 534.175781 128.0625 534.40625 127.804688 534.664062 C 127.546875 534.925781 127.316406 535.207031 127.113281 535.511719 C 126.90625 535.816406 126.738281 536.136719 126.597656 536.472656 C 126.457031 536.8125 126.351562 537.160156 126.277344 537.519531 C 126.207031 537.878906 126.171875 538.242188 126.171875 538.609375 C 126.171875 538.972656 126.207031 539.335938 126.277344 539.695312 C 126.351562 540.054688 126.457031 540.402344 126.597656 540.742188 C 126.738281 541.078125 126.910156 541.398438 127.113281 541.703125 C 127.316406 542.007812 127.546875 542.289062 127.804688 542.550781 C 128.0625 542.808594 128.34375 543.039062 128.648438 543.242188 C 128.953125 543.445312 129.273438 543.617188 129.613281 543.757812 C 129.953125 543.898438 130.300781 544.003906 130.660156 544.074219 C 131.019531 544.148438 131.378906 544.183594 131.746094 544.183594 L 973.789062 544.183594 C 977.183594 544.144531 980.578125 544.1875 983.972656 544.316406 C 987.367188 544.445312 990.753906 544.65625 994.136719 544.953125 C 997.519531 545.25 1000.894531 545.628906 1004.257812 546.089844 C 1007.621094 546.554688 1010.972656 547.097656 1014.3125 547.726562 C 1017.648438 548.355469 1020.96875 549.066406 1024.269531 549.859375 C 1027.570312 550.652344 1030.851562 551.527344 1034.113281 552.480469 C 1037.371094 553.4375 1040.605469 554.472656 1043.8125 555.585938 C 1047.019531 556.703125 1050.199219 557.894531 1053.347656 559.167969 C 1056.496094 560.4375 1059.609375 561.789062 1062.691406 563.214844 C 1065.773438 564.640625 1068.820312 566.140625 1071.828125 567.71875 C 1074.835938 569.296875 1077.800781 570.945312 1080.726562 572.671875 C 1083.652344 574.394531 1086.535156 576.1875 1089.375 578.054688 C 1092.210938 579.921875 1095 581.855469 1097.742188 583.859375 C 1100.484375 585.863281 1103.171875 587.933594 1105.8125 590.070312 C 1108.453125 592.210938 1111.035156 594.410156 1113.566406 596.675781 C 1116.097656 598.941406 1118.570312 601.265625 1120.984375 603.652344 C 1123.402344 606.042969 1125.753906 608.488281 1128.050781 610.992188 C 1130.34375 613.496094 1132.574219 616.054688 1134.742188 618.667969 C 1136.910156 621.28125 1139.011719 623.949219 1141.046875 626.664062 C 1143.085938 629.382812 1145.050781 632.152344 1146.949219 634.964844 C 1148.851562 637.78125 1150.679688 640.640625 1152.4375 643.546875 C 1154.191406 646.453125 1155.878906 649.402344 1157.488281 652.390625 C 1159.101562 655.378906 1160.636719 658.40625 1162.101562 661.472656 C 1163.5625 664.539062 1164.949219 667.636719 1166.257812 670.769531 C 1167.566406 673.902344 1168.796875 677.070312 1169.949219 680.261719 C 1171.101562 683.457031 1172.171875 686.679688 1173.164062 689.925781 C 1174.160156 693.175781 1175.070312 696.445312 1175.902344 699.738281 C 1176.734375 703.03125 1177.480469 706.339844 1178.148438 709.671875 C 1178.816406 713 1179.402344 716.34375 1179.902344 719.703125 C 1180.40625 723.0625 1180.824219 726.429688 1181.160156 729.808594 C 1181.496094 733.191406 1181.746094 736.574219 1181.914062 739.96875 C 1182.082031 743.359375 1182.164062 746.753906 1182.164062 750.148438 C 1182.164062 753.546875 1182.082031 756.9375 1181.914062 760.332031 C 1181.746094 763.722656 1181.496094 767.109375 1181.160156 770.488281 C 1180.824219 773.867188 1180.40625 777.238281 1179.902344 780.59375 C 1179.402344 783.953125 1178.816406 787.296875 1178.148438 790.628906 C 1177.480469 793.957031 1176.734375 797.269531 1175.902344 800.5625 C 1175.070312 803.855469 1174.160156 807.125 1173.164062 810.371094 C 1172.171875 813.621094 1171.101562 816.839844 1169.949219 820.035156 C 1168.796875 823.230469 1167.566406 826.394531 1166.257812 829.527344 C 1164.949219 832.660156 1163.5625 835.761719 1162.101562 838.828125 C 1160.636719 841.890625 1159.101562 844.917969 1157.488281 847.90625 C 1155.878906 850.898438 1154.191406 853.84375 1152.4375 856.75 C 1150.679688 859.65625 1148.851562 862.515625 1146.949219 865.332031 C 1145.050781 868.148438 1143.085938 870.914062 1141.046875 873.632812 C 1139.011719 876.351562 1136.910156 879.015625 1134.742188 881.632812 C 1132.574219 884.246094 1130.34375 886.804688 1128.050781 889.308594 C 1125.753906 891.8125 1123.402344 894.257812 1120.984375 896.644531 C 1118.570312 899.03125 1116.097656 901.359375 1113.566406 903.625 C 1111.035156 905.886719 1108.453125 908.089844 1105.8125 910.226562 C 1103.171875 912.363281 1100.484375 914.433594 1097.742188 916.4375 C 1095 918.441406 1092.210938 920.378906 1089.375 922.242188 C 1086.535156 924.109375 1083.652344 925.90625 1080.726562 927.628906 C 1077.800781 929.351562 1074.835938 931.003906 1071.828125 932.578125 C 1068.820312 934.15625 1065.773438 935.65625 1062.691406 937.082031 C 1059.609375 938.511719 1056.496094 939.859375 1053.347656 941.132812 C 1050.199219 942.402344 1047.019531 943.597656 1043.8125 944.710938 C 1040.605469 945.828125 1037.371094 946.863281 1034.113281 947.816406 C 1030.851562 948.773438 1027.570312 949.644531 1024.269531 950.4375 C 1020.96875 951.230469 1017.648438 951.941406 1014.3125 952.570312 C 1010.972656 953.199219 1007.621094 953.746094 1004.257812 954.207031 C 1000.894531 954.671875 997.519531 955.050781 994.136719 955.347656 C 990.753906 955.640625 987.367188 955.855469 983.972656 955.984375 C 980.578125 956.113281 977.183594 956.15625 973.789062 956.117188 L 131.746094 956.117188 C 131.378906 956.117188 131.019531 956.152344 130.660156 956.222656 C 130.300781 956.292969 129.953125 956.402344 129.613281 956.539062 C 129.273438 956.679688 128.953125 956.851562 128.648438 957.054688 C 128.34375 957.257812 128.0625 957.492188 127.804688 957.75 C 127.546875 958.007812 127.316406 958.289062 127.113281 958.59375 C 126.90625 958.898438 126.738281 959.21875 126.597656 959.558594 C 126.457031 959.894531 126.351562 960.246094 126.277344 960.601562 C 126.207031 960.960938 126.171875 961.324219 126.171875 961.691406 C 126.171875 962.058594 126.207031 962.417969 126.277344 962.777344 C 126.351562 963.136719 126.457031 963.484375 126.597656 963.824219 C 126.738281 964.164062 126.910156 964.484375 127.113281 964.789062 C 127.316406 965.09375 127.546875 965.375 127.804688 965.632812 C 128.0625 965.890625 128.34375 966.121094 128.648438 966.324219 C 128.953125 966.53125 129.273438 966.699219 129.613281 966.839844 C 129.953125 966.980469 130.300781 967.085938 130.660156 967.160156 C 131.019531 967.230469 131.378906 967.265625 131.746094 967.265625 Z M 131.941406 907.226562 L 972.699219 907.226562 C 975.269531 907.226562 977.839844 907.164062 980.40625 907.039062 C 982.976562 906.910156 985.539062 906.722656 988.097656 906.472656 C 990.652344 906.21875 993.203125 905.90625 995.746094 905.527344 C 998.289062 905.148438 1000.820312 904.710938 1003.34375 904.210938 C 1005.863281 903.707031 1008.371094 903.144531 1010.863281 902.519531 C 1013.359375 901.894531 1015.835938 901.210938 1018.292969 900.464844 C 1020.753906 899.71875 1023.195312 898.910156 1025.613281 898.046875 C 1028.035156 897.179688 1030.433594 896.253906 1032.808594 895.269531 C 1035.183594 894.289062 1037.53125 893.246094 1039.855469 892.148438 C 1042.179688 891.046875 1044.472656 889.894531 1046.742188 888.679688 C 1049.007812 887.46875 1051.242188 886.203125 1053.449219 884.882812 C 1055.652344 883.558594 1057.824219 882.183594 1059.960938 880.757812 C 1062.097656 879.328125 1064.199219 877.847656 1066.265625 876.316406 C 1068.328125 874.785156 1070.355469 873.207031 1072.339844 871.574219 C 1074.328125 869.945312 1076.273438 868.265625 1078.179688 866.539062 C 1080.082031 864.8125 1081.945312 863.042969 1083.761719 861.222656 C 1085.578125 859.40625 1087.351562 857.546875 1089.078125 855.640625 C 1090.804688 853.738281 1092.484375 851.789062 1094.113281 849.804688 C 1095.742188 847.816406 1097.324219 845.789062 1098.855469 843.726562 C 1100.386719 841.660156 1101.867188 839.5625 1103.296875 837.421875 C 1104.722656 835.285156 1106.097656 833.113281 1107.417969 830.910156 C 1108.742188 828.707031 1110.007812 826.46875 1111.21875 824.203125 C 1112.429688 821.9375 1113.585938 819.640625 1114.683594 817.316406 C 1115.785156 814.992188 1116.824219 812.644531 1117.808594 810.269531 C 1118.792969 807.894531 1119.71875 805.496094 1120.582031 803.078125 C 1121.449219 800.65625 1122.253906 798.214844 1123 795.757812 C 1123.75 793.296875 1124.433594 790.820312 1125.058594 788.328125 C 1125.683594 785.832031 1126.246094 783.324219 1126.746094 780.804688 C 1127.25 778.285156 1127.6875 775.75 1128.066406 773.210938 C 1128.441406 770.667969 1128.757812 768.117188 1129.007812 765.558594 C 1129.261719 763 1129.449219 760.4375 1129.574219 757.871094 C 1129.703125 755.300781 1129.765625 752.734375 1129.765625 750.164062 C 1129.765625 747.59375 1129.703125 745.023438 1129.574219 742.457031 C 1129.449219 739.890625 1129.261719 737.328125 1129.007812 734.769531 C 1128.757812 732.210938 1128.441406 729.660156 1128.066406 727.117188 C 1127.6875 724.574219 1127.25 722.042969 1126.746094 719.523438 C 1126.246094 717 1125.683594 714.492188 1125.058594 712 C 1124.433594 709.507812 1123.75 707.03125 1123 704.570312 C 1122.253906 702.109375 1121.449219 699.671875 1120.582031 697.25 C 1119.71875 694.828125 1118.792969 692.433594 1117.808594 690.058594 C 1116.824219 687.683594 1115.785156 685.332031 1114.683594 683.007812 C 1113.585938 680.6875 1112.429688 678.390625 1111.21875 676.125 C 1110.007812 673.855469 1108.742188 671.621094 1107.417969 669.417969 C 1106.097656 667.210938 1104.722656 665.039062 1103.296875 662.902344 C 1101.867188 660.765625 1100.386719 658.664062 1098.855469 656.601562 C 1097.324219 654.535156 1095.742188 652.511719 1094.113281 650.523438 C 1092.484375 648.535156 1090.804688 646.589844 1089.078125 644.683594 C 1087.351562 642.78125 1085.578125 640.917969 1083.761719 639.101562 C 1081.945312 637.285156 1080.082031 635.511719 1078.179688 633.785156 C 1076.273438 632.058594 1074.328125 630.382812 1072.339844 628.75 C 1070.355469 627.121094 1068.328125 625.539062 1066.265625 624.007812 C 1064.199219 622.476562 1062.097656 620.996094 1059.960938 619.570312 C 1057.824219 618.140625 1055.652344 616.765625 1053.449219 615.445312 C 1051.242188 614.125 1049.007812 612.855469 1046.742188 611.644531 C 1044.472656 610.433594 1042.179688 609.277344 1039.855469 608.179688 C 1037.53125 607.078125 1035.179688 606.039062 1032.808594 605.054688 C 1030.433594 604.070312 1028.035156 603.148438 1025.613281 602.28125 C 1023.195312 601.414062 1020.753906 600.609375 1018.292969 599.863281 C 1015.835938 599.117188 1013.359375 598.429688 1010.863281 597.804688 C 1008.371094 597.183594 1005.863281 596.617188 1003.34375 596.117188 C 1000.820312 595.617188 998.289062 595.175781 995.746094 594.800781 C 993.203125 594.421875 990.652344 594.109375 988.097656 593.855469 C 985.539062 593.605469 982.976562 593.414062 980.40625 593.289062 C 977.839844 593.164062 975.269531 593.097656 972.699219 593.097656 L 131.941406 593.097656 C 131.574219 593.097656 131.214844 593.136719 130.855469 593.207031 C 130.496094 593.277344 130.148438 593.382812 129.808594 593.523438 C 129.46875 593.664062 129.148438 593.835938 128.84375 594.039062 C 128.539062 594.242188 128.257812 594.472656 128 594.730469 C 127.742188 594.992188 127.511719 595.273438 127.308594 595.578125 C 127.101562 595.882812 126.933594 596.203125 126.792969 596.539062 C 126.652344 596.878906 126.546875 597.226562 126.472656 597.585938 C 126.402344 597.945312 126.367188 598.308594 126.367188 598.675781 C 126.367188 599.039062 126.402344 599.402344 126.472656 599.761719 C 126.546875 600.121094 126.652344 600.46875 126.792969 600.808594 C 126.929688 601.144531 127.101562 601.464844 127.308594 601.769531 C 127.511719 602.074219 127.742188 602.355469 128 602.617188 C 128.257812 602.875 128.539062 603.105469 128.84375 603.308594 C 129.148438 603.511719 129.46875 603.683594 129.808594 603.824219 C 130.148438 603.964844 130.496094 604.070312 130.855469 604.140625 C 131.214844 604.210938 131.574219 604.25 131.941406 604.25 L 972.699219 604.25 C 975.089844 604.25 977.476562 604.308594 979.859375 604.425781 C 982.246094 604.542969 984.625 604.71875 987.003906 604.949219 C 989.378906 605.183594 991.75 605.476562 994.109375 605.828125 C 996.472656 606.179688 998.824219 606.585938 1001.167969 607.050781 C 1003.507812 607.519531 1005.839844 608.042969 1008.15625 608.621094 C 1010.472656 609.203125 1012.773438 609.839844 1015.058594 610.53125 C 1017.34375 611.226562 1019.609375 611.972656 1021.859375 612.777344 C 1024.105469 613.582031 1026.335938 614.441406 1028.539062 615.355469 C 1030.746094 616.269531 1032.929688 617.238281 1035.085938 618.257812 C 1037.246094 619.277344 1039.378906 620.351562 1041.484375 621.476562 C 1043.589844 622.605469 1045.667969 623.78125 1047.714844 625.007812 C 1049.765625 626.234375 1051.78125 627.511719 1053.765625 628.839844 C 1055.753906 630.167969 1057.703125 631.539062 1059.621094 632.964844 C 1061.539062 634.386719 1063.421875 635.855469 1065.269531 637.371094 C 1067.113281 638.882812 1068.921875 640.445312 1070.691406 642.046875 C 1072.460938 643.652344 1074.191406 645.296875 1075.878906 646.984375 C 1077.566406 648.675781 1079.214844 650.402344 1080.816406 652.171875 C 1082.421875 653.941406 1083.980469 655.75 1085.496094 657.597656 C 1087.007812 659.441406 1088.476562 661.324219 1089.902344 663.242188 C 1091.324219 665.160156 1092.699219 667.113281 1094.023438 669.097656 C 1095.351562 671.082031 1096.628906 673.101562 1097.855469 675.148438 C 1099.085938 677.195312 1100.261719 679.273438 1101.386719 681.378906 C 1102.511719 683.484375 1103.585938 685.617188 1104.605469 687.777344 C 1105.628906 689.933594 1106.59375 692.117188 1107.507812 694.324219 C 1108.421875 696.53125 1109.28125 698.757812 1110.085938 701.007812 C 1110.890625 703.253906 1111.640625 705.519531 1112.332031 707.804688 C 1113.027344 710.089844 1113.664062 712.390625 1114.242188 714.707031 C 1114.824219 717.023438 1115.347656 719.355469 1115.8125 721.695312 C 1116.277344 724.039062 1116.6875 726.390625 1117.035156 728.753906 C 1117.386719 731.117188 1117.679688 733.484375 1117.914062 735.859375 C 1118.148438 738.238281 1118.324219 740.617188 1118.441406 743.003906 C 1118.558594 745.390625 1118.617188 747.773438 1118.617188 750.164062 C 1118.617188 752.550781 1118.558594 754.9375 1118.441406 757.324219 C 1118.324219 759.707031 1118.148438 762.089844 1117.914062 764.464844 C 1117.679688 766.84375 1117.386719 769.210938 1117.035156 771.574219 C 1116.6875 773.9375 1116.277344 776.289062 1115.8125 778.628906 C 1115.347656 780.972656 1114.824219 783.300781 1114.242188 785.617188 C 1113.664062 787.933594 1113.027344 790.234375 1112.332031 792.519531 C 1111.640625 794.804688 1110.890625 797.070312 1110.085938 799.320312 C 1109.28125 801.570312 1108.421875 803.796875 1107.507812 806.003906 C 1106.59375 808.207031 1105.628906 810.390625 1104.605469 812.550781 C 1103.585938 814.707031 1102.511719 816.839844 1101.386719 818.945312 C 1100.261719 821.054688 1099.085938 823.128906 1097.855469 825.179688 C 1096.628906 827.226562 1095.351562 829.242188 1094.023438 831.230469 C 1092.699219 833.214844 1091.324219 835.167969 1089.902344 837.085938 C 1088.476562 839.003906 1087.007812 840.882812 1085.496094 842.730469 C 1083.980469 844.578125 1082.421875 846.382812 1080.816406 848.152344 C 1079.214844 849.921875 1077.566406 851.652344 1075.878906 853.339844 C 1074.191406 855.027344 1072.460938 856.675781 1070.691406 858.277344 C 1068.921875 859.882812 1067.113281 861.441406 1065.269531 862.957031 C 1063.421875 864.472656 1061.539062 865.941406 1059.621094 867.363281 C 1057.703125 868.785156 1055.753906 870.160156 1053.765625 871.488281 C 1051.78125 872.8125 1049.765625 874.089844 1047.714844 875.320312 C 1045.667969 876.546875 1043.589844 877.722656 1041.484375 878.847656 C 1039.378906 879.972656 1037.246094 881.046875 1035.085938 882.070312 C 1032.929688 883.089844 1030.746094 884.058594 1028.539062 884.972656 C 1026.335938 885.886719 1024.105469 886.742188 1021.859375 887.546875 C 1019.609375 888.351562 1017.34375 889.101562 1015.058594 889.796875 C 1012.773438 890.488281 1010.472656 891.125 1008.15625 891.707031 C 1005.839844 892.285156 1003.507812 892.808594 1001.167969 893.273438 C 998.824219 893.742188 996.472656 894.148438 994.109375 894.5 C 991.75 894.847656 989.378906 895.140625 987.003906 895.375 C 984.625 895.609375 982.246094 895.785156 979.859375 895.902344 C 977.476562 896.019531 975.089844 896.078125 972.699219 896.078125 L 131.941406 896.078125 C 131.574219 896.078125 131.214844 896.113281 130.855469 896.183594 C 130.496094 896.257812 130.148438 896.363281 129.808594 896.503906 C 129.46875 896.640625 129.148438 896.8125 128.84375 897.015625 C 128.539062 897.222656 128.257812 897.453125 128 897.710938 C 127.742188 897.96875 127.511719 898.25 127.308594 898.554688 C 127.101562 898.859375 126.933594 899.179688 126.792969 899.519531 C 126.652344 899.859375 126.546875 900.207031 126.472656 900.566406 C 126.402344 900.925781 126.367188 901.285156 126.367188 901.652344 C 126.367188 902.019531 126.402344 902.382812 126.472656 902.742188 C 126.546875 903.097656 126.652344 903.449219 126.792969 903.785156 C 126.929688 904.125 127.101562 904.445312 127.308594 904.75 C 127.511719 905.054688 127.742188 905.335938 128 905.59375 C 128.257812 905.851562 128.539062 906.085938 128.84375 906.289062 C 129.148438 906.492188 129.46875 906.664062 129.808594 906.804688 C 130.148438 906.941406 130.496094 907.046875 130.855469 907.121094 C 131.214844 907.191406 131.574219 907.226562 131.941406 907.226562 Z M 132.109375 847.160156 L 971.613281 847.160156 C 973.21875 847.1875 974.824219 847.175781 976.425781 847.125 C 978.03125 847.070312 979.632812 846.980469 981.234375 846.847656 C 982.832031 846.714844 984.429688 846.542969 986.019531 846.332031 C 987.609375 846.121094 989.195312 845.871094 990.773438 845.582031 C 992.351562 845.292969 993.921875 844.960938 995.484375 844.59375 C 997.046875 844.226562 998.601562 843.820312 1000.140625 843.375 C 1001.683594 842.929688 1003.214844 842.449219 1004.734375 841.929688 C 1006.25 841.40625 1007.753906 840.847656 1009.246094 840.253906 C 1010.738281 839.660156 1012.210938 839.027344 1013.671875 838.359375 C 1015.128906 837.691406 1016.570312 836.984375 1017.996094 836.246094 C 1019.421875 835.503906 1020.824219 834.730469 1022.210938 833.921875 C 1023.597656 833.109375 1024.960938 832.265625 1026.304688 831.390625 C 1027.648438 830.511719 1028.96875 829.601562 1030.269531 828.660156 C 1031.566406 827.714844 1032.84375 826.742188 1034.09375 825.734375 C 1035.34375 824.726562 1036.566406 823.691406 1037.765625 822.625 C 1038.964844 821.558594 1040.136719 820.460938 1041.28125 819.335938 C 1042.425781 818.210938 1043.542969 817.058594 1044.628906 815.878906 C 1045.71875 814.695312 1046.773438 813.488281 1047.800781 812.257812 C 1048.828125 811.023438 1049.824219 809.765625 1050.789062 808.484375 C 1051.753906 807.199219 1052.6875 805.894531 1053.589844 804.566406 C 1054.488281 803.238281 1055.355469 801.886719 1056.1875 800.515625 C 1057.019531 799.144531 1057.820312 797.75 1058.585938 796.339844 C 1059.347656 794.929688 1060.078125 793.5 1060.769531 792.050781 C 1061.464844 790.601562 1062.121094 789.140625 1062.742188 787.660156 C 1063.359375 786.179688 1063.945312 784.683594 1064.492188 783.175781 C 1065.035156 781.664062 1065.546875 780.144531 1066.015625 778.609375 C 1066.488281 777.074219 1066.917969 775.53125 1067.3125 773.972656 C 1067.707031 772.417969 1068.0625 770.851562 1068.378906 769.28125 C 1068.695312 767.707031 1068.972656 766.125 1069.210938 764.539062 C 1069.449219 762.953125 1069.648438 761.359375 1069.808594 759.761719 C 1069.964844 758.164062 1070.085938 756.566406 1070.164062 754.960938 C 1070.246094 753.359375 1070.285156 751.753906 1070.285156 750.148438 C 1070.285156 748.542969 1070.246094 746.941406 1070.164062 745.335938 C 1070.085938 743.734375 1069.964844 742.132812 1069.808594 740.535156 C 1069.648438 738.941406 1069.449219 737.347656 1069.210938 735.761719 C 1068.972656 734.171875 1068.695312 732.59375 1068.378906 731.019531 C 1068.0625 729.445312 1067.707031 727.878906 1067.3125 726.324219 C 1066.917969 724.769531 1066.488281 723.222656 1066.015625 721.6875 C 1065.546875 720.15625 1065.035156 718.632812 1064.492188 717.125 C 1063.945312 715.613281 1063.359375 714.121094 1062.742188 712.640625 C 1062.121094 711.160156 1061.464844 709.695312 1060.769531 708.246094 C 1060.078125 706.800781 1059.347656 705.371094 1058.585938 703.960938 C 1057.820312 702.546875 1057.019531 701.15625 1056.1875 699.785156 C 1055.355469 698.414062 1054.488281 697.0625 1053.589844 695.734375 C 1052.6875 694.402344 1051.753906 693.097656 1050.789062 691.816406 C 1049.824219 690.535156 1048.828125 689.277344 1047.800781 688.042969 C 1046.773438 686.808594 1045.71875 685.601562 1044.628906 684.421875 C 1043.542969 683.242188 1042.425781 682.089844 1041.28125 680.960938 C 1040.136719 679.835938 1038.964844 678.742188 1037.765625 677.675781 C 1036.566406 676.605469 1035.34375 675.570312 1034.09375 674.5625 C 1032.84375 673.558594 1031.566406 672.582031 1030.269531 671.640625 C 1028.96875 670.695312 1027.648438 669.785156 1026.304688 668.910156 C 1024.960938 668.03125 1023.597656 667.1875 1022.210938 666.378906 C 1020.824219 665.566406 1019.421875 664.792969 1017.996094 664.054688 C 1016.570312 663.3125 1015.128906 662.609375 1013.671875 661.941406 C 1012.210938 661.273438 1010.738281 660.640625 1009.246094 660.042969 C 1007.753906 659.449219 1006.25 658.890625 1004.734375 658.371094 C 1003.214844 657.851562 1001.683594 657.367188 1000.140625 656.921875 C 998.601562 656.476562 997.046875 656.070312 995.484375 655.703125 C 993.921875 655.335938 992.351562 655.007812 990.773438 654.71875 C 989.195312 654.429688 987.609375 654.175781 986.019531 653.964844 C 984.429688 653.753906 982.832031 653.582031 981.234375 653.453125 C 979.632812 653.320312 978.03125 653.226562 976.425781 653.175781 C 974.824219 653.121094 973.21875 653.109375 971.613281 653.136719 L 132.109375 653.136719 C 131.742188 653.136719 131.378906 653.171875 131.019531 653.246094 C 130.664062 653.316406 130.3125 653.421875 129.976562 653.5625 C 129.636719 653.703125 129.316406 653.875 129.011719 654.078125 C 128.707031 654.28125 128.425781 654.511719 128.167969 654.769531 C 127.910156 655.027344 127.675781 655.3125 127.472656 655.613281 C 127.269531 655.917969 127.097656 656.242188 126.957031 656.578125 C 126.820312 656.917969 126.714844 657.265625 126.640625 657.625 C 126.570312 657.984375 126.535156 658.347656 126.535156 658.710938 C 126.535156 659.078125 126.570312 659.441406 126.640625 659.800781 C 126.714844 660.160156 126.820312 660.507812 126.957031 660.84375 C 127.097656 661.183594 127.269531 661.503906 127.472656 661.808594 C 127.675781 662.113281 127.910156 662.394531 128.167969 662.652344 C 128.425781 662.914062 128.707031 663.144531 129.011719 663.347656 C 129.316406 663.550781 129.636719 663.722656 129.976562 663.863281 C 130.3125 664.003906 130.664062 664.109375 131.019531 664.179688 C 131.378906 664.25 131.742188 664.285156 132.109375 664.285156 L 971.613281 664.285156 C 973.035156 664.261719 974.457031 664.269531 975.878906 664.316406 C 977.296875 664.359375 978.71875 664.441406 980.132812 664.554688 C 981.550781 664.671875 982.964844 664.824219 984.375 665.007812 C 985.78125 665.195312 987.1875 665.414062 988.585938 665.667969 C 989.984375 665.925781 991.375 666.214844 992.757812 666.539062 C 994.144531 666.863281 995.519531 667.222656 996.882812 667.613281 C 998.25 668.007812 999.605469 668.433594 1000.949219 668.894531 C 1002.296875 669.355469 1003.628906 669.847656 1004.949219 670.375 C 1006.269531 670.898438 1007.578125 671.457031 1008.871094 672.050781 C 1010.164062 672.640625 1011.441406 673.261719 1012.703125 673.917969 C 1013.964844 674.570312 1015.207031 675.257812 1016.4375 675.972656 C 1017.664062 676.691406 1018.875 677.4375 1020.0625 678.214844 C 1021.253906 678.988281 1022.425781 679.796875 1023.578125 680.628906 C 1024.726562 681.464844 1025.855469 682.328125 1026.964844 683.21875 C 1028.074219 684.109375 1029.15625 685.027344 1030.21875 685.96875 C 1031.28125 686.914062 1032.320312 687.886719 1033.335938 688.882812 C 1034.347656 689.878906 1035.339844 690.898438 1036.300781 691.941406 C 1037.265625 692.988281 1038.203125 694.058594 1039.113281 695.148438 C 1040.023438 696.242188 1040.90625 697.355469 1041.761719 698.488281 C 1042.617188 699.625 1043.441406 700.78125 1044.242188 701.957031 C 1045.039062 703.132812 1045.804688 704.332031 1046.542969 705.542969 C 1047.28125 706.757812 1047.992188 707.992188 1048.667969 709.242188 C 1049.34375 710.492188 1049.992188 711.757812 1050.605469 713.039062 C 1051.21875 714.320312 1051.800781 715.617188 1052.351562 716.929688 C 1052.902344 718.238281 1053.417969 719.5625 1053.902344 720.898438 C 1054.386719 722.238281 1054.835938 723.585938 1055.253906 724.945312 C 1055.671875 726.300781 1056.054688 727.671875 1056.402344 729.046875 C 1056.753906 730.425781 1057.070312 731.8125 1057.347656 733.207031 C 1057.628906 734.601562 1057.875 736 1058.085938 737.40625 C 1058.296875 738.8125 1058.472656 740.222656 1058.613281 741.636719 C 1058.753906 743.050781 1058.859375 744.46875 1058.929688 745.886719 C 1059 747.308594 1059.035156 748.726562 1059.035156 750.148438 C 1059.035156 751.570312 1059 752.992188 1058.929688 754.410156 C 1058.859375 755.832031 1058.753906 757.25 1058.613281 758.664062 C 1058.472656 760.078125 1058.296875 761.488281 1058.085938 762.894531 C 1057.875 764.300781 1057.628906 765.699219 1057.347656 767.09375 C 1057.070312 768.484375 1056.753906 769.871094 1056.402344 771.25 C 1056.054688 772.628906 1055.671875 773.996094 1055.253906 775.355469 C 1054.835938 776.714844 1054.386719 778.0625 1053.902344 779.398438 C 1053.417969 780.734375 1052.902344 782.058594 1052.351562 783.371094 C 1051.800781 784.679688 1051.21875 785.976562 1050.605469 787.257812 C 1049.992188 788.539062 1049.34375 789.808594 1048.667969 791.058594 C 1047.992188 792.308594 1047.28125 793.539062 1046.542969 794.753906 C 1045.804688 795.96875 1045.039062 797.164062 1044.242188 798.339844 C 1043.441406 799.515625 1042.617188 800.671875 1041.761719 801.808594 C 1040.90625 802.945312 1040.023438 804.058594 1039.113281 805.148438 C 1038.203125 806.242188 1037.265625 807.308594 1036.300781 808.355469 C 1035.339844 809.402344 1034.347656 810.421875 1033.335938 811.417969 C 1032.320312 812.414062 1031.28125 813.382812 1030.21875 814.328125 C 1029.15625 815.273438 1028.074219 816.191406 1026.964844 817.082031 C 1025.855469 817.972656 1024.726562 818.835938 1023.578125 819.667969 C 1022.425781 820.503906 1021.253906 821.308594 1020.0625 822.085938 C 1018.875 822.863281 1017.664062 823.609375 1016.4375 824.324219 C 1015.207031 825.042969 1013.964844 825.726562 1012.703125 826.382812 C 1011.441406 827.035156 1010.164062 827.660156 1008.871094 828.25 C 1007.578125 828.839844 1006.269531 829.398438 1004.949219 829.925781 C 1003.628906 830.453125 1002.296875 830.945312 1000.949219 831.40625 C 999.605469 831.863281 998.25 832.292969 996.882812 832.683594 C 995.519531 833.078125 994.144531 833.433594 992.757812 833.757812 C 991.375 834.085938 989.984375 834.375 988.585938 834.628906 C 987.1875 834.882812 985.78125 835.105469 984.375 835.289062 C 982.964844 835.476562 981.550781 835.625 980.132812 835.742188 C 978.71875 835.859375 977.296875 835.9375 975.878906 835.984375 C 974.457031 836.027344 973.035156 836.039062 971.613281 836.011719 L 132.109375 836.011719 C 131.742188 836.011719 131.378906 836.046875 131.019531 836.117188 C 130.664062 836.191406 130.3125 836.296875 129.976562 836.4375 C 129.636719 836.578125 129.316406 836.746094 129.011719 836.953125 C 128.707031 837.15625 128.425781 837.386719 128.167969 837.644531 C 127.910156 837.902344 127.675781 838.183594 127.472656 838.488281 C 127.269531 838.792969 127.097656 839.113281 126.957031 839.453125 C 126.820312 839.792969 126.714844 840.140625 126.640625 840.5 C 126.570312 840.859375 126.535156 841.21875 126.535156 841.585938 C 126.535156 841.953125 126.570312 842.316406 126.640625 842.675781 C 126.714844 843.03125 126.820312 843.382812 126.957031 843.71875 C 127.097656 844.058594 127.269531 844.378906 127.472656 844.683594 C 127.675781 844.988281 127.910156 845.269531 128.167969 845.527344 C 128.425781 845.789062 128.707031 846.019531 129.011719 846.222656 C 129.316406 846.425781 129.636719 846.597656 129.976562 846.738281 C 130.3125 846.875 130.664062 846.984375 131.019531 847.054688 C 131.378906 847.125 131.742188 847.160156 132.109375 847.160156 Z M 132.109375 847.160156 " fill-opacity="1" fill-rule="nonzero"/></g></svg>