<svg xmlns="http://www.w3.org/2000/svg" xmlns:xlink="http://www.w3.org/1999/xlink" width="2000" zoomAndPan="magnify" viewBox="0 0 1500 1499.999933" height="2000" preserveAspectRatio="xMidYMid meet" version="1.0"><defs><g/><clipPath id="c97bbe269e"><rect x="0" width="938" y="0" height="1381"/></clipPath><clipPath id="e34534dc1d"><path d="M 283.886719 47.847656 L 663.613281 47.847656 L 663.613281 1243.457031 L 283.886719 1243.457031 Z M 283.886719 47.847656 " clip-rule="nonzero"/></clipPath><clipPath id="e901750f27"><path d="M 0.886719 0.847656 L 380.613281 0.847656 L 380.613281 1196.457031 L 0.886719 1196.457031 Z M 0.886719 0.847656 " clip-rule="nonzero"/></clipPath><clipPath id="23f9e4c237"><rect x="0" width="381" y="0" height="1197"/></clipPath><clipPath id="7a46cbdf4e"><path d="M 517.824219 183.960938 L 531.703125 183.960938 L 531.703125 1125.515625 L 517.824219 1125.515625 Z M 517.824219 183.960938 " clip-rule="nonzero"/></clipPath><clipPath id="7ac2a0a553"><path d="M 0.824219 0.960938 L 14.703125 0.960938 L 14.703125 942.515625 L 0.824219 942.515625 Z M 0.824219 0.960938 " clip-rule="nonzero"/></clipPath><clipPath id="207e8ea04a"><rect x="0" width="15" y="0" height="943"/></clipPath><clipPath id="70b846433e"><rect x="0" width="147" y="0" height="751"/></clipPath><clipPath id="f205e23064"><path d="M 27 0.238281 L 112 0.238281 L 112 48 L 27 48 Z M 27 0.238281 " clip-rule="nonzero"/></clipPath><clipPath id="3a8727c6df"><rect x="0" width="143" y="0" height="168"/></clipPath></defs><g transform="matrix(1, 0, 0, 1, 280, 119)"><g clip-path="url(#c97bbe269e)"><g fill="#333333" fill-opacity="1"><g transform="translate(8.304591, 992.066105)"><g><path d="M 897.734375 -514.578125 L 897.734375 -315.203125 C 873.972656 -206.054688 821.992188 -123.453125 741.796875 -67.390625 C 661.597656 -11.328125 572.125 16.703125 473.375 16.703125 C 349.363281 16.703125 243.734375 -29.703125 156.484375 -122.515625 C 69.242188 -215.335938 25.625 -327.460938 25.625 -458.890625 C 25.625 -592.546875 68.316406 -705.410156 153.703125 -797.484375 C 239.097656 -889.566406 345.65625 -935.609375 473.375 -935.609375 C 622.625 -935.609375 740.6875 -883.257812 827.5625 -778.5625 L 690.5625 -628.1875 C 641.550781 -706.894531 573.238281 -746.25 485.625 -746.25 C 421.019531 -746.25 365.882812 -718.21875 320.21875 -662.15625 C 274.550781 -606.09375 251.71875 -538.335938 251.71875 -458.890625 C 251.71875 -380.921875 274.550781 -314.273438 320.21875 -258.953125 C 365.882812 -203.640625 421.019531 -175.984375 485.625 -175.984375 C 539.082031 -175.984375 585.675781 -192.132812 625.40625 -224.4375 C 665.132812 -256.738281 685 -299.617188 685 -353.078125 L 473.375 -353.078125 L 473.375 -514.578125 Z M 897.734375 -514.578125 "/></g></g></g></g></g><g clip-path="url(#e34534dc1d)"><g transform="matrix(1, 0, 0, 1, 283, 47)"><g clip-path="url(#23f9e4c237)"><g clip-path="url(#e901750f27)"><path fill="#deddd6" d="M 0.886719 0.847656 L 380.613281 0.847656 L 380.613281 1196.390625 L 0.886719 1196.390625 Z M 0.886719 0.847656 " fill-opacity="1" fill-rule="nonzero"/></g></g></g></g><g clip-path="url(#7a46cbdf4e)"><g transform="matrix(1, 0, 0, 1, 517, 183)"><g clip-path="url(#207e8ea04a)"><g clip-path="url(#7ac2a0a553)"><path fill="#333333" d="M 0.824219 0.960938 L 14.703125 0.960938 L 14.703125 942.492188 L 0.824219 942.492188 Z M 0.824219 0.960938 " fill-opacity="1" fill-rule="nonzero"/></g></g></g></g><g transform="matrix(1, 0, 0, 1, 539, 387)"><g clip-path="url(#70b846433e)"><g fill="#333333" fill-opacity="1"><g transform="translate(104.689026, 746.318786)"><g><path d="M -96.65625 -49.09375 L -27.296875 -49.09375 C -17.847656 -49.09375 -10.644531 -46.492188 -5.6875 -41.296875 C -0.726562 -36.097656 1.75 -28.660156 1.75 -18.984375 C 1.75 -16.398438 1.4375 -13.859375 0.8125 -11.359375 C 0.195312 -8.859375 -0.554688 -6.75 -1.453125 -5.03125 C -2.359375 -3.3125 -3.28125 -1.769531 -4.21875 -0.40625 C -5.15625 0.957031 -5.9375 1.953125 -6.5625 2.578125 L -7.5 3.625 L -25.890625 -3.390625 C -21.515625 -8.003906 -19.328125 -12.1875 -19.328125 -15.9375 C -19.328125 -19.289062 -20.441406 -21.984375 -22.671875 -24.015625 C -24.898438 -26.046875 -28.316406 -27.0625 -32.921875 -27.0625 L -96.65625 -27.0625 Z M -96.65625 -49.09375 "/></g></g></g><g fill="#333333" fill-opacity="1"><g transform="translate(104.689026, 691.386638)"><g><path d="M -96.65625 -81.3125 L -34.328125 -81.3125 C -22.453125 -81.3125 -13.46875 -78.109375 -7.375 -71.703125 C -1.289062 -65.296875 1.75 -55.921875 1.75 -43.578125 C 1.75 -31.242188 -1.289062 -21.875 -7.375 -15.46875 C -13.46875 -9.0625 -22.453125 -5.859375 -34.328125 -5.859375 L -96.65625 -5.859375 L -96.65625 -27.890625 L -40.765625 -27.890625 C -32.960938 -27.890625 -27.535156 -29.117188 -24.484375 -31.578125 C -21.441406 -34.035156 -19.921875 -38.035156 -19.921875 -43.578125 C -19.921875 -49.128906 -21.441406 -53.132812 -24.484375 -55.59375 C -27.535156 -58.050781 -32.960938 -59.28125 -40.765625 -59.28125 L -96.65625 -59.28125 Z M -96.65625 -81.3125 "/></g></g></g><g fill="#333333" fill-opacity="1"><g transform="translate(104.689026, 604.244797)"><g><path d="M -96.65625 -56.125 L 0 -95.125 L 0 -71.46875 L -19.328125 -64.3125 L -19.328125 -27.53125 L 0 -20.390625 L 0 3.28125 L -96.65625 -35.734375 Z M -38.65625 -56.828125 L -66.78125 -46.046875 L -66.78125 -45.8125 L -38.65625 -35.03125 Z M -38.65625 -56.828125 "/></g></g></g><g fill="#333333" fill-opacity="1"><g transform="translate(104.689026, 512.417903)"><g><path d="M -59.984375 -29.0625 L 0 -29.0625 L 0 -7.03125 L -96.65625 -7.03125 L -96.65625 -29.0625 L -36.671875 -67.484375 L -36.671875 -67.71875 L -96.65625 -67.71875 L -96.65625 -89.734375 L 0 -89.734375 L 0 -67.71875 L -59.984375 -29.296875 Z M -59.984375 -29.0625 "/></g></g></g><g fill="#333333" fill-opacity="1"><g transform="translate(104.689026, 415.671718)"><g/></g></g><g fill="#333333" fill-opacity="1"><g transform="translate(104.689026, 383.696293)"><g><path d="M -96.65625 -7.03125 L -96.65625 -35.03125 C -96.65625 -48.46875 -92.066406 -59.945312 -82.890625 -69.46875 C -73.710938 -79 -62.210938 -83.765625 -48.390625 -83.765625 C -34.484375 -83.765625 -22.941406 -79.019531 -13.765625 -69.53125 C -4.585938 -60.039062 0 -48.539062 0 -35.03125 L 0 -7.03125 Z M -19.6875 -29.0625 L -19.6875 -32.453125 C -19.6875 -40.492188 -22.398438 -47.070312 -27.828125 -52.1875 C -33.253906 -57.300781 -40.066406 -59.898438 -48.265625 -59.984375 C -56.460938 -59.984375 -63.296875 -57.425781 -68.765625 -52.3125 C -74.234375 -47.195312 -76.96875 -40.578125 -76.96875 -32.453125 L -76.96875 -29.0625 Z M -19.6875 -29.0625 "/></g></g></g><g fill="#333333" fill-opacity="1"><g transform="translate(104.689026, 297.257229)"><g><path d="M -96.65625 -56.125 L 0 -95.125 L 0 -71.46875 L -19.328125 -64.3125 L -19.328125 -27.53125 L 0 -20.390625 L 0 3.28125 L -96.65625 -35.734375 Z M -38.65625 -56.828125 L -66.78125 -46.046875 L -66.78125 -45.8125 L -38.65625 -35.03125 Z M -38.65625 -56.828125 "/></g></g></g><g fill="#333333" fill-opacity="1"><g transform="translate(104.689026, 215.388377)"><g><path d="M 0 -37.25 L -96.65625 3.28125 L -96.65625 -21.5625 L -33.15625 -45.921875 L -96.65625 -70.296875 L -96.65625 -95.125 L 0 -54.59375 Z M 0 -37.25 "/></g></g></g><g fill="#333333" fill-opacity="1"><g transform="translate(104.689026, 123.561483)"><g><path d="M -96.65625 -29.0625 L 0 -29.0625 L 0 -7.03125 L -96.65625 -7.03125 Z M -96.65625 -29.0625 "/></g></g></g><g fill="#333333" fill-opacity="1"><g transform="translate(104.689026, 87.486619)"><g><path d="M -96.65625 -7.03125 L -96.65625 -35.03125 C -96.65625 -48.46875 -92.066406 -59.945312 -82.890625 -69.46875 C -73.710938 -79 -62.210938 -83.765625 -48.390625 -83.765625 C -34.484375 -83.765625 -22.941406 -79.019531 -13.765625 -69.53125 C -4.585938 -60.039062 0 -48.539062 0 -35.03125 L 0 -7.03125 Z M -19.6875 -29.0625 L -19.6875 -32.453125 C -19.6875 -40.492188 -22.398438 -47.070312 -27.828125 -52.1875 C -33.253906 -57.300781 -40.066406 -59.898438 -48.265625 -59.984375 C -56.460938 -59.984375 -63.296875 -57.425781 -68.765625 -52.3125 C -74.234375 -47.195312 -76.96875 -40.578125 -76.96875 -32.453125 L -76.96875 -29.0625 Z M -19.6875 -29.0625 "/></g></g></g></g></g><g transform="matrix(1, 0, 0, 1, 527, 180)"><g clip-path="url(#3a8727c6df)"><g fill="#333333" fill-opacity="1"><g transform="translate(111.326831, 167.421365)"><g><path d="M -39.03125 -85.765625 L -34.96875 -85.765625 C -29.976562 -85.765625 -25.304688 -84.851562 -20.953125 -83.03125 C -16.609375 -81.21875 -12.796875 -78.597656 -9.515625 -75.171875 C -6.234375 -71.753906 -3.679688 -67.691406 -1.859375 -62.984375 C -0.046875 -58.273438 0.859375 -53.035156 0.859375 -47.265625 C 0.859375 -41.203125 -0.226562 -35.65625 -2.40625 -30.625 C -4.582031 -25.601562 -7.59375 -21.273438 -11.4375 -17.640625 C -15.289062 -14.003906 -19.800781 -11.207031 -24.96875 -9.25 C -30.132812 -7.289062 -35.75 -6.3125 -41.8125 -6.3125 C -47.726562 -6.3125 -53.269531 -7.289062 -58.4375 -9.25 C -63.601562 -11.207031 -68.144531 -14.019531 -72.0625 -17.6875 C -75.988281 -21.363281 -79.070312 -25.710938 -81.3125 -30.734375 C -83.5625 -35.765625 -84.6875 -41.382812 -84.6875 -47.59375 C -84.6875 -52.71875 -83.898438 -57.328125 -82.328125 -61.421875 C -80.765625 -65.523438 -78.71875 -69.109375 -76.1875 -72.171875 C -73.65625 -75.242188 -70.910156 -77.773438 -67.953125 -79.765625 C -64.992188 -81.765625 -62.125 -83.265625 -59.34375 -84.265625 L -57.53125 -80.421875 C -60.09375 -79.492188 -62.710938 -78.140625 -65.390625 -76.359375 C -68.066406 -74.578125 -70.5625 -72.328125 -72.875 -69.609375 C -75.195312 -66.898438 -77.066406 -63.707031 -78.484375 -60.03125 C -79.910156 -56.363281 -80.625 -52.179688 -80.625 -47.484375 C -80.625 -41.992188 -79.609375 -37 -77.578125 -32.5 C -75.546875 -28.007812 -72.75 -24.144531 -69.1875 -20.90625 C -65.625 -17.664062 -61.523438 -15.171875 -56.890625 -13.421875 C -52.253906 -11.671875 -47.335938 -10.796875 -42.140625 -10.796875 C -36.710938 -10.796875 -31.628906 -11.671875 -26.890625 -13.421875 C -22.148438 -15.171875 -18 -17.664062 -14.4375 -20.90625 C -10.875 -24.144531 -8.09375 -28.007812 -6.09375 -32.5 C -4.09375 -37 -3.09375 -41.992188 -3.09375 -47.484375 C -3.09375 -51.972656 -3.820312 -56.265625 -5.28125 -60.359375 C -6.75 -64.460938 -8.851562 -68.082031 -11.59375 -71.21875 C -14.34375 -74.351562 -17.660156 -76.828125 -21.546875 -78.640625 C -25.429688 -80.460938 -29.796875 -81.375 -34.640625 -81.375 L -34.96875 -81.375 L -34.96875 -42.78125 L -39.03125 -42.78125 Z M -39.03125 -85.765625 "/></g></g></g><g fill="#333333" fill-opacity="1"><g transform="translate(111.326831, 82.425731)"><g><path d="M 0 -16.890625 L 0 -12.40625 L -83.734375 -12.40625 L -83.734375 -16.890625 Z M 0 -16.890625 "/></g></g></g><g clip-path="url(#f205e23064)"><g fill="#333333" fill-opacity="1"><g transform="translate(111.326831, 59.548192)"><g><path d="M 0 -12.40625 L -83.734375 -12.40625 L -83.734375 -16.796875 L -4.0625 -16.796875 L -4.0625 -58.609375 L 0 -58.609375 Z M 0 -12.40625 "/></g></g></g></g></g></g></svg>